ffmpeg version 3.4.8-0ubuntu0.2 Copyright (c) 2000-2020 the FFmpeg developers
  built with gcc 7 (Ubuntu 7.5.0-3ubuntu1~18.04)
  configuration: --prefix=/usr --extra-version=0ubuntu0.2 --toolchain=hardened --libdir=/usr/lib/x86_64-linux-gnu --incdir=/usr/include/x86_64-linux-gnu --enable-gpl --disable-stripping --enable-avresample --enable-avisynth --enable-gnutls --enable-ladspa --enable-libass --enable-libbluray --enable-libbs2b --enable-libcaca --enable-libcdio --enable-libflite --enable-libfontconfig --enable-libfreetype --enable-libfribidi --enable-libgme --enable-libgsm --enable-libmp3lame --enable-libmysofa --enable-libopenjpeg --enable-libopenmpt --enable-libopus --enable-libpulse --enable-librubberband --enable-librsvg --enable-libshine --enable-libsnappy --enable-libsoxr --enable-libspeex --enable-libssh --enable-libtheora --enable-libtwolame --enable-libvorbis --enable-libvpx --enable-libwavpack --enable-libwebp --enable-libx265 --enable-libxml2 --enable-libxvid --enable-libzmq --enable-libzvbi --enable-omx --enable-openal --enable-opengl --enable-sdl2 --enable-libdc1394 --enable-libdrm --enable-libiec61883 --enable-chromaprint --enable-frei0r --enable-libopencv --enable-libx264 --enable-shared
  libavutil      55. 78.100 / 55. 78.100
  libavcodec     57.107.100 / 57.107.100
  libavformat    57. 83.100 / 57. 83.100
  libavdevice    57. 10.100 / 57. 10.100
  libavfilter     6.107.100 /  6.107.100
  libavresample   3.  7.  0 /  3.  7.  0
  libswscale      4.  8.100 /  4.  8.100
  libswresample   2.  9.100 /  2.  9.100
  libpostproc    54.  7.100 / 54.  7.100
[rawvideo @ 0x562408ea2a20] Estimating duration from bitrate, this may be inaccurate
Input #0, rawvideo, from '../../SVC-Encoder-20220109T061506Z-001/SVC-Encoder/Dataset/RollerCoaster/6f_2x2/tile_yuv/f5_t1_480x480.yuv':
  Duration: 00:00:10.00, start: 0.000000, bitrate: 82944 kb/s
    Stream #0:0: Video: rawvideo (I420 / 0x30323449), yuv420p, 480x480, 82944 kb/s, 30 tbr, 30 tbn, 30 tbc
Stream mapping:
  Stream #0:0 -> #0:0 (rawvideo (native) -> h264 (libx264))
Press [q] to stop, [?] for help
[libx264 @ 0x562408eafc60] using cpu capabilities: MMX2 SSE2Fast LZCNT SSSE3 SSE4.2 AVX
[libx264 @ 0x562408eafc60] profile High, level 3.0
Output #0, rawvideo, to 'RollerCoaster_f5_t1_480x480_x264_QP_36.h264':
  Metadata:
    encoder         : Lavf57.83.100
    Stream #0:0: Video: h264 (libx264), yuv420p, 480x480, q=-1--1, 30 fps, 30 tbn, 30 tbc
    Metadata:
      encoder         : Lavc57.107.100 libx264
    Side data:
      cpb: bitrate max/min/avg: 0/0/0 buffer size: 0 vbv_delay: -1
frame=  183 fps=0.0 q=42.0 PSNR=Y:nan U:nan V:nan *:nan size=      39kB time=00:00:04.66 bitrate=  68.9kbits/s speed=9.33x    frame=  300 fps=0.0 q=42.0 LPSNR=Y:inf U:inf V:inf *:inf size=      75kB time=00:00:09.93 bitrate=  62.2kbits/s speed=10.6x    
video:75kB audio:0kB subtitle:0kB other streams:0kB global headers:0kB muxing overhead: 0.000000%
[libx264 @ 0x562408eafc60] frame I:2     Avg QP:34.90  size:  5530  PSNR Mean Y:35.85 U:43.96 V:46.87 Avg:37.36 Global:37.20
[libx264 @ 0x562408eafc60] frame P:77    Avg QP:36.18  size:   537  PSNR Mean Y:34.84 U:43.79 V:46.00 Avg:36.39 Global:36.37
[libx264 @ 0x562408eafc60] frame B:221   Avg QP:41.45  size:   112  PSNR Mean Y:34.61 U:43.81 V:45.99 Avg:36.17 Global:36.15
[libx264 @ 0x562408eafc60] consecutive B-frames:  1.0%  2.0%  1.0% 96.0%
[libx264 @ 0x562408eafc60] mb I  I16..4: 24.1% 72.7%  3.2%
[libx264 @ 0x562408eafc60] mb P  I16..4:  0.5%  0.6%  0.0%  P16..4: 19.0%  1.2%  0.2%  0.0%  0.0%    skip:78.4%
[libx264 @ 0x562408eafc60] mb B  I16..4:  0.0%  0.0%  0.0%  B16..8:  8.9%  0.2%  0.0%  direct: 0.0%  skip:90.9%  L0:38.3% L1:61.6% BI: 0.1%
[libx264 @ 0x562408eafc60] 8x8 transform intra:67.2% inter:82.9%
[libx264 @ 0x562408eafc60] coded y,uvDC,uvAC intra: 35.5% 28.9% 1.3% inter: 0.9% 0.2% 0.0%
[libx264 @ 0x562408eafc60] i16 v,h,dc,p: 37% 25% 23% 15%
[libx264 @ 0x562408eafc60] i8 v,h,dc,ddl,ddr,vr,hd,vl,hu:  3%  8% 61%  7%  3%  2%  3%  3% 10%
[libx264 @ 0x562408eafc60] i4 v,h,dc,ddl,ddr,vr,hd,vl,hu:  4%  8% 53% 16%  4%  4%  2%  2%  7%
[libx264 @ 0x562408eafc60] i8c dc,h,v,p: 83% 12%  5%  1%
[libx264 @ 0x562408eafc60] Weighted P-Frames: Y:1.3% UV:0.0%
[libx264 @ 0x562408eafc60] ref P L0: 58.0% 23.1% 13.4%  5.5%  0.0%
[libx264 @ 0x562408eafc60] ref B L0: 73.4% 23.5%  3.1%
[libx264 @ 0x562408eafc60] ref B L1: 81.3% 18.7%
[libx264 @ 0x562408eafc60] PSNR Mean Y:34.681 U:43.803 V:45.997 Avg:36.233 Global:36.215 kb/s:61.78
